/* XPM */
static char * xmonobut_xpm[] = {
"10 14 7 1",
"  s None c None",
". c #969696",
"# c #000000",
"a c #c8c8c8",
"b c #323232",
"c c #646464",
"d c #ffffff",
" ######## ",
"#cdbddcd.#",
"#cdbddcd.#",
"#cdbddcd.#",
"#bbcccccc#",
"#c.adddd.#",
"#c.adddd.#",
"#c.adddd.#",
"#c.adddd.#",
"#c.adddd.#",
"#c..aada.#",
" #c.....# ",
" #cccccc# ",
"  ######  "};